<?xml version="1.0" encoding="utf-8"?>
<!-- Generator: Adobe Illustrator 16.0.0, SVG Export Plug-In . SVG Version: 6.00 Build 0)  -->
<!DOCTYPE svg PUBLIC "-//W3C//DTD SVG 1.1//EN" "http://www.w3.org/Graphics/SVG/1.1/DTD/svg11.dtd">
<svg version="1.1" id="Layer_1" xmlns="http://www.w3.org/2000/svg" xmlns:xlink="http://www.w3.org/1999/xlink" x="0px" y="0px"
	 width="537.961px" height="44.199px" viewBox="0 0 537.961 44.199" enable-background="new 0 0 537.961 44.199"
	 xml:space="preserve">
<g>
	<polygon fill="#00FF3B" points="0,24.692 30.917,40.617 30.917,33.08 9.12,22.153 30.917,11.227 30.917,3.689 0,19.614 	"/>
	<path fill="#00FF3B" d="M69.633,27.233c-2.034,5.988-7.201,9.708-13.485,9.708c-3.752,0-7.299-1.548-9.987-4.358
		c-2.704-2.827-4.193-6.507-4.193-10.364c0-3.991,1.45-7.616,4.193-10.484c2.688-2.81,6.234-4.358,9.987-4.358
		c6.288,0,11.072,3.343,13.126,9.172l0.118,0.334h7.013l-0.158-0.623c-2.483-9.808-10.185-15.9-20.099-15.9
		c-5.538,0-10.975,2.336-14.924,6.416c-3.967,4.231-6.152,9.715-6.152,15.443c0,5.65,2.185,11.092,6.155,15.326
		c3.941,4.135,9.24,6.413,14.921,6.413c9.879,0,17.887-6.454,20.4-16.442l0.157-0.622h-6.957L69.633,27.233z"/>
	<path fill="#00FF3B" d="M103.412,0c-5.778,0-11.434,2.379-15.521,6.529c-4.126,4.257-6.398,9.787-6.398,15.57
		c0,5.784,2.272,11.313,6.398,15.57c4.024,4.149,9.681,6.529,15.521,6.529c5.901,0,11.433-2.318,15.581-6.529
		c4.126-4.257,6.398-9.787,6.398-15.57s-2.272-11.313-6.404-15.575C114.781,2.317,109.25,0,103.412,0z M103.412,37.062
		c-3.866,0-7.661-1.612-10.416-4.426c-2.815-2.815-4.366-6.557-4.366-10.537c0-3.979,1.55-7.721,4.37-10.54
		c2.751-2.811,6.546-4.422,10.412-4.422c3.883,0,7.724,1.613,10.533,4.422c2.779,2.841,4.31,6.584,4.31,10.54
		c0,3.957-1.53,7.7-4.306,10.537C111.136,35.449,107.295,37.062,103.412,37.062z"/>
	<path fill="#00FF3B" d="M147.849,0.602h-15.602v43.056h15.602c6.537,0,12.032-2.324,15.891-6.721
		c3.421-3.898,5.306-9.146,5.306-14.777c0-5.635-1.884-10.894-5.305-14.807C159.878,2.936,154.383,0.602,147.849,0.602z
		 M147.849,36.581h-8.525V7.678h8.525c6.83,0,14.18,4.532,14.18,14.481C162.029,29.105,157.591,36.581,147.849,36.581z"/>
	<polygon fill="#00FF3B" points="182.255,25.668 201.327,25.668 201.327,18.531 182.255,18.531 182.255,7.678 201.749,7.678 
		201.749,0.602 175.118,0.602 175.118,43.657 201.809,43.657 201.809,36.581 182.255,36.581 	"/>
	<path fill="#00FF3B" d="M237.638,14.458c0-9.137-7.152-13.917-14.217-13.917h-15.842v43.116h7.017V7.678h8.826
		c4.906,0,7.141,3.515,7.141,6.78c0,3.294-2.234,6.84-7.141,6.84h-7.6v3.569l15.607,18.79h9.19l-13.445-16
		C233.56,26.188,237.638,21.092,237.638,14.458z"/>
	<path fill="#00FF3B" d="M258.637,18.473c-5.006-0.467-8.856-1.119-9.115-4.838c-0.117-1.407,0.201-2.638,0.919-3.562
		c1.407-1.81,4.12-2.93,7.255-2.996l0.188-0.001c3.393,0,7.157,1.535,7.919,4.964l0.091,0.408l6.986-0.279l-0.077-0.547
		c-1.194-8.489-8.727-11.501-14.814-11.501c-5.36,0-10.399,2.219-13.152,5.791c-1.825,2.373-2.651,5.26-2.388,8.349l0.004,0
		c0.781,9.813,10.265,10.771,15.365,11.285c4.465,0.447,8.211,1.038,8.827,3.763c0.112,0.502,0.169,0.952,0.169,1.335
		c0,3.928-4.644,6.359-8.946,6.359c-3.93,0-8.216-2.061-8.588-5.51l-0.016,0.001l-0.074-1.119l-7.13,0.14l0.089,1.685
		c0.799,7.677,8.664,11.819,15.659,11.819c7.935,0,16.143-4.98,16.143-13.315c0-0.835-0.113-1.88-0.314-2.885
		C272,21.031,265.144,19.286,258.637,18.473z"/>
	<polygon fill="#00FF3B" points="317.149,18.351 300.34,18.351 300.34,0.602 293.263,0.602 293.263,43.657 300.34,43.657 
		300.34,25.367 317.149,25.367 317.149,43.657 324.286,43.657 324.286,0.602 317.149,0.602 	"/>
	<path fill="#00FF3B" d="M344.717,0l-17.302,43.657h7.639l0.122-0.323c1.026-2.705,2.636-6.656,4.918-12.071h14.434l5.055,12.394
		h7.569L349.849,0H344.717z M351.814,24.547h-9.057l4.58-12.856L351.814,24.547z"/>
	<polygon fill="#00FF3B" points="383.658,31.221 371.48,0.602 363.784,0.602 381.092,43.777 386.22,43.777 403.528,0.602 
		395.953,0.602 	"/>
	<polygon fill="#00FF3B" points="414.572,25.668 433.646,25.668 433.646,18.531 414.572,18.531 414.572,7.678 434.066,7.678 
		434.066,0.602 407.436,0.602 407.436,43.657 434.127,43.657 434.127,36.581 414.572,36.581 	"/>
	<polygon fill="#00FF3B" points="465.046,29.101 445.294,0.545 439.837,0.475 439.837,43.657 446.913,43.657 446.913,15.339 
		466.338,43.441 466.486,43.657 472.062,43.657 472.062,0.542 465.046,0.542 	"/>
	<polygon fill="#00FF3B" points="477.675,44.064 484.927,44.064 502.956,0.11 495.639,0.11 	"/>
	<polygon fill="#00FF3B" points="507.044,3.694 507.044,11.23 529.002,22.153 507.044,33.077 507.044,40.612 537.961,24.754 
		537.961,19.552 	"/>
</g>
<g>
	<polygon fill="#231F20" points="757.727,367.417 787.645,382.827 787.645,376.418 765.23,365.183 787.645,353.947 787.645,347.538 
		757.727,362.948 	"/>
	<path fill="#231F20" d="M816.375,380.471c-4.03,0-7.701-1.745-10.348-4.513c-2.647-2.768-4.332-6.498-4.332-10.709
		c0-4.332,1.685-8.062,4.332-10.83c2.646-2.768,6.317-4.512,10.348-4.512c6.197,0,11.372,3.188,13.598,9.506h6.018
		c-2.407-9.506-9.988-15.523-19.615-15.523c-5.715,0-10.889,2.467-14.559,6.258c-3.611,3.851-6.018,9.145-6.018,15.102
		c0,5.836,2.406,11.131,6.018,14.98c3.67,3.852,8.844,6.258,14.559,6.258c9.808,0,17.509-6.498,19.916-16.064h-5.957
		C828.168,376.801,822.754,380.471,816.375,380.471z"/>
	<path fill="#231F20" d="M859.639,343.529c-5.896,0-11.311,2.467-15.161,6.378c-3.79,3.91-6.257,9.266-6.257,15.221
		c0,5.957,2.467,11.312,6.257,15.223c3.851,3.971,9.266,6.377,15.161,6.377c5.957,0,11.312-2.406,15.223-6.377
		c3.791-3.91,6.258-9.266,6.258-15.223c0-5.955-2.467-11.311-6.258-15.221C870.951,345.996,865.596,343.529,859.639,343.529z
		 M870.529,376.019c-2.828,2.828-6.738,4.572-10.891,4.572c-4.15,0-8.002-1.744-10.77-4.572c-2.768-2.768-4.512-6.618-4.512-10.891
		c0-4.271,1.744-8.121,4.512-10.889c2.768-2.828,6.619-4.573,10.77-4.573c4.152,0,8.062,1.745,10.891,4.573
		c2.707,2.768,4.452,6.558,4.452,10.889C874.981,369.46,873.236,373.251,870.529,376.019z"/>
	<path fill="#231F20" d="M900.076,344.131h-15.102v42.056h15.102c13.777,0,20.696-10.469,20.696-20.998
		S913.854,344.131,900.076,344.131z M900.076,380.11h-9.025v-29.902h9.025c9.746,0,14.68,7.521,14.68,14.98
		C914.756,372.649,909.822,380.11,900.076,380.11z"/>
	<polygon fill="#231F20" points="929.982,368.197 949.055,368.197 949.055,362.06 929.982,362.06 929.982,350.208 949.476,350.208 
		949.476,344.131 923.846,344.131 923.846,386.187 949.535,386.187 949.535,380.11 929.982,380.11 	"/>
	<path fill="#231F20" d="M981.365,357.487c0-6.678-4.572-13.416-13.717-13.416h-15.343v42.115h6.017v-35.979h9.326
		c5.113,0,7.641,3.67,7.641,7.279c0,3.67-2.527,7.34-7.641,7.34h-7.1v2.889l15.342,18.471h7.881l-13.296-15.824
		C977.695,369.1,981.365,363.444,981.365,357.487z"/>
	<path fill="#231F20" d="M998.817,362c-4.513-0.421-9.266-0.962-9.566-5.294c-0.12-1.444,0.181-2.828,1.022-3.911
		c1.686-2.166,4.814-3.129,7.642-3.188c3.67-0.061,7.761,1.564,8.604,5.354l6.017-0.24c-1.083-7.701-7.822-11.07-14.319-11.07
		c-4.874,0-9.927,1.926-12.755,5.596c-1.805,2.346-2.527,5.174-2.287,8.002v-0.061c0.662,8.784,8.363,10.229,14.922,10.891
		c4.211,0.421,8.543,0.963,9.266,4.15c0.12,0.542,0.18,1.023,0.18,1.444c0,4.332-4.934,6.858-9.445,6.858
		c-3.911,0-8.664-2.045-9.086-5.955v0.24l-0.06-0.902l-6.137,0.12l0.06,1.144c0.783,7.52,8.664,11.371,15.162,11.371
		c7.581,0,15.643-4.693,15.643-12.815c0-0.843-0.119-1.865-0.301-2.768C1011.753,364.226,1004.594,362.722,998.817,362z"/>
	<polygon fill="#231F20" points="1057.876,361.88 1040.066,361.88 1040.066,344.131 1033.99,344.131 1033.99,386.187 
		1040.066,386.187 1040.066,367.896 1057.876,367.896 1057.876,386.187 1064.013,386.187 1064.013,344.131 1057.876,344.131 	"/>
	<path fill="#231F20" d="M1081.283,343.529l-16.906,42.657h6.559c1.323-3.49,3.43-8.543,5.054-12.395h15.102l5.054,12.395h6.498
		l-16.906-42.657H1081.283z M1078.275,368.077l5.295-14.861l5.174,14.861H1078.275z"/>
	<polygon fill="#231F20" points="1115.883,375.598 1103.369,344.131 1096.75,344.131 1113.656,386.307 1118.109,386.307 
		1135.016,344.131 1128.518,344.131 	"/>
	<polygon fill="#231F20" points="1142.299,368.197 1161.373,368.197 1161.373,362.06 1142.299,362.06 1142.299,350.208 
		1161.793,350.208 1161.793,344.131 1136.162,344.131 1136.162,386.187 1161.854,386.187 1161.854,380.11 1142.299,380.11 	"/>
	<polygon fill="#231F20" points="1189.773,373.732 1169.256,344.071 1164.564,344.011 1164.564,386.187 1170.641,386.187 
		1170.641,356.766 1190.977,386.187 1195.789,386.187 1195.789,344.071 1189.773,344.071 	"/>
	<polygon fill="#231F20" points="1205.646,386.593 1211.818,386.593 1229.438,340.974 1223.201,340.974 	"/>
	<polygon fill="#231F20" points="1234.771,347.542 1234.771,353.95 1257.352,365.183 1234.771,376.415 1234.771,382.823 
		1264.688,367.478 1264.688,362.888 	"/>
</g>
<text transform="matrix(1 0 0 1 750.5293 308.1572)"><tspan x="0" y="0" fill="#231F20" font-family="'MyriadPro-Regular'" font-size="60.1726">&lt;</tspan><tspan x="35.862" y="0" fill="#231F20" font-family="'Code-Bold'" font-size="60.1726">Coders Haven </tspan><tspan x="468.195" y="0" fill="#231F20" font-family="'MyriadPro-Regular'" font-size="60.1726">/&gt;</tspan></text>
</svg>
